<svg width="24" height="24" viewBox="0 0 24 24" fill="none" xmlns="http://www.w3.org/2000/svg">
<path d="M11.8806 1.90527H11.8756C11.6768 1.90527 11.5156 2.06645 11.5156 2.26527V6.59027C11.5156 6.7891 11.6768 6.95027 11.8756 6.95027H11.8806C12.0794 6.95027 12.2406 6.7891 12.2406 6.59027V2.26527C12.2406 2.06645 12.0794 1.90527 11.8806 1.90527Z" fill="#EE9CA7"/>
<path d="M18.3314 4.72083L15.2272 7.82503C15.0866 7.96562 15.0866 8.19356 15.2272 8.33415L15.4606 8.56749C15.6011 8.70808 15.8291 8.70808 15.9697 8.56749L19.0739 5.46329C19.2145 5.32271 19.2145 5.09477 19.0739 4.95418L18.8405 4.72083C18.6999 4.58024 18.472 4.58024 18.3314 4.72083Z" fill="#EE9CA7"/>
<path d="M21.5292 11.2305H17.1842C16.9854 11.2305 16.8242 11.3916 16.8242 11.5905V12.2455C16.8242 12.4443 16.9854 12.6055 17.1842 12.6055H21.5292C21.728 12.6055 21.8892 12.4443 21.8892 12.2455V11.5905C21.8892 11.3916 21.728 11.2305 21.5292 11.2305Z" fill="#EE9CA7"/>
<path d="M15.7503 15.0994L15.0573 15.7923C14.9167 15.9329 14.9167 16.1608 15.0573 16.3014L18.0979 19.342C18.2384 19.4826 18.4664 19.4826 18.607 19.342L19.2999 18.649C19.4405 18.5084 19.4405 18.2805 19.2999 18.1399L16.2594 15.0994C16.1188 14.9588 15.8908 14.9588 15.7503 15.0994Z" fill="#EE9CA7"/>
<path d="M12.5302 17.0049H11.2252C11.0264 17.0049 10.8652 17.1661 10.8652 17.3649V21.5699C10.8652 21.7687 11.0264 21.9299 11.2252 21.9299H12.5302C12.7291 21.9299 12.8902 21.7687 12.8902 21.5699V17.3649C12.8902 17.1661 12.7291 17.0049 12.5302 17.0049Z" fill="#EE9CA7"/>
<path d="M7.18962 14.9456L4.22331 17.9119C4.08272 18.0525 4.08272 18.2805 4.22331 18.4211L5.37589 19.5736C5.51648 19.7142 5.74442 19.7142 5.88501 19.5736L8.85132 16.6073C8.99191 16.4667 8.99191 16.2388 8.85132 16.0982L7.69874 14.9456C7.55815 14.805 7.33021 14.805 7.18962 14.9456Z" fill="#EE9CA7"/>
<path d="M6.42023 10.5801H2.22523C2.02641 10.5801 1.86523 10.7413 1.86523 10.9401V12.8951C1.86523 13.0939 2.02641 13.2551 2.22523 13.2551H6.42023C6.61906 13.2551 6.78023 13.0939 6.78023 12.8951V10.9401C6.78023 10.7413 6.61906 10.5801 6.42023 10.5801Z" fill="#EE9CA7"/>
<path d="M5.83551 3.7431L4.22331 5.3553C4.08272 5.49589 4.08272 5.72383 4.22331 5.86442L7.24973 8.89084C7.39031 9.03143 7.61825 9.03143 7.75884 8.89084L9.37105 7.27864C9.51163 7.13805 9.51163 6.91011 9.37105 6.76952L6.34463 3.7431C6.20404 3.60251 5.9761 3.60251 5.83551 3.7431Z" fill="#EE9CA7"/>
</svg>
